<svg width="439" height="260" viewBox="0 0 439 260" fill="none" xmlns="http://www.w3.org/2000/svg">
<circle opacity="0.5" cx="3" cy="3" r="3" transform="matrix(-1 0 0 1 89 10)" fill="#553AF5"/>
<circle opacity="0.4" cx="3" cy="3" r="3" transform="matrix(-1 0 0 1 113 56)" fill="#553AF5"/>
<circle opacity="0.3" cx="3" cy="3" r="3" transform="matrix(-1 0 0 1 177 34)" fill="#553AF5"/>
<circle opacity="0.2" cx="3" cy="3" r="3" transform="matrix(-1 0 0 1 287 89)" fill="#553AF5"/>
<circle opacity="0.6" cx="3" cy="3" r="3" transform="matrix(-1 0 0 1 237 14)" fill="#553AF5"/>
<circle opacity="0.7" cx="3" cy="3" r="3" transform="matrix(-1 0 0 1 386 148)" fill="#553AF5"/>
<circle opacity="0.8" cx="3" cy="3" r="3" transform="matrix(-1 0 0 1 368 61)" fill="#553AF5"/>
<circle opacity="0.9" cx="3" cy="3" r="3" transform="matrix(-1 0 0 1 439 254)" fill="#553AF5"/>
<circle cx="3" cy="3" r="3" transform="matrix(-1 0 0 1 6 0)" fill="#553AF5"/>
<circle opacity="0.1" cx="3" cy="3" r="3" transform="matrix(-1 0 0 1 242 103)" fill="#553AF5"/>
</svg>
