<svg width="235" height="48" viewBox="0 0 235 48" fill="none" xmlns="http://www.w3.org/2000/svg">
<path d="M15.8612 7.25358L8.57617 14.4786L9.75117 15.5697C10.3387 16.1595 11.6312 17.3686 12.5712 18.2533L14.2749 19.8457L18.7987 15.3633L23.2637 10.8513L27.5524 15.0684C29.9024 17.3981 32.0174 19.4328 32.3112 19.5803C32.8399 19.8457 37.5987 15.1568 37.5987 14.4196C37.5987 14.0657 24.3212 0.647882 23.5574 0.235025C23.3224 0.117067 19.9149 3.27247 15.8612 7.25358Z" fill="#ECC140"/>
<path d="M198.105 10.9703C195.285 11.2652 192.113 12.7102 190.292 14.5091C188.235 16.5144 186.767 20.466 186.767 23.8278C186.767 31.5836 192.054 36.8623 199.75 36.8623C203.452 36.8623 206.389 35.7417 208.915 33.3825C209.914 32.4388 209.914 32.4094 208.269 30.6695C207.329 29.6963 206.448 28.9001 206.272 28.9001C206.095 28.9296 205.214 29.4309 204.333 30.0797C201.748 31.9375 198.164 32.0555 195.814 30.3156C193.64 28.6936 192.524 25.8626 192.818 22.8547C193.464 16.6028 199.868 14.1847 205.155 18.2248L206.154 18.9915L207.975 16.9567C210.09 14.5975 209.855 14.0078 206.33 12.3268C203.569 10.9998 201.337 10.6459 198.105 10.9703Z" fill="#ECC140"/>
<path d="M55.2246 23.8858V36.5664H61.6284C68.6784 36.5664 70.5584 36.3305 73.0259 35.1509C77.4321 33.0571 77.6084 26.304 73.3196 24.0038C72.2034 23.355 72.2034 23.355 73.4959 22.0869C74.6121 20.9958 74.8471 20.3176 74.9059 17.9879C74.9059 15.6287 74.6709 14.9799 73.4959 13.7708C71.3809 11.5591 69.7359 11.2052 61.8634 11.2052H55.2246V23.8858ZM68.7371 17.0737C69.6771 17.9879 69.4421 19.9047 68.2671 20.6419C67.4446 21.1728 66.3871 21.3497 63.8609 21.4677L60.5121 21.5856V19.0495V16.5134H64.3309C67.4446 16.5134 68.2084 16.6019 68.7371 17.0737ZM69.4421 26.7463C70.2059 27.1002 70.4996 27.631 70.4996 28.7221C70.4409 30.9339 69.7359 31.2583 64.6834 31.2583H60.5121V28.7516V26.245H64.4484C67.2684 26.245 68.6784 26.3924 69.4421 26.7463Z" fill="#ECC140"/>
<path d="M82.8369 23.8858V36.5664H85.7744H88.7119V23.8858V11.2052H85.7744H82.8369V23.8858Z" fill="#ECC140"/>
<path d="M96.9365 23.8866V36.5672H99.874H102.812V28.9588L102.87 21.38L104.28 23.1494C105.044 24.1225 107.629 27.5138 110.038 30.6692L114.444 36.4197L116.853 36.5082L119.262 36.5967V23.8866V11.1765L116.5 11.265L113.68 11.3535L113.504 18.5784L113.328 25.8034L107.805 18.5784C104.75 14.5973 102.224 11.324 102.224 11.265C102.224 11.2355 101.049 11.206 99.5803 11.206H96.9365V23.8866Z" fill="#ECC140"/>
<path d="M135.419 11.854C135.243 12.2374 134.479 14.1247 133.656 16.071C132.775 18.0174 131.6 20.7599 130.954 22.1754C130.366 23.5614 129.603 25.3603 129.25 26.1565C128.956 26.9233 127.899 29.4889 126.9 31.848C125.96 34.1777 125.138 36.2125 125.138 36.3305C125.138 36.4484 126.43 36.5664 128.016 36.5664H130.895L131.953 33.7649L133.01 30.9634H138.415H143.82L144.231 32.3789C144.466 33.1456 144.878 34.3842 145.23 35.1804L145.818 36.5664H148.696C150.753 36.5664 151.575 36.4484 151.575 36.1535C151.575 35.7702 150.165 32.2904 146.581 24.0333C145.759 22.0869 144.408 18.902 143.585 16.9852C141.118 10.9398 141.353 11.2052 138.356 11.2052C136.124 11.2052 135.713 11.2937 135.419 11.854ZM140.941 24.9769C141 25.5962 140.706 25.6552 138.18 25.6552H135.301L136.829 21.969L138.356 18.3123L139.649 21.3202C140.354 22.9716 140.941 24.6231 140.941 24.9769Z" fill="#ECC140"/>
<path d="M157.45 23.8866V36.5967L160.27 36.5082L163.031 36.4197L163.325 28.8999L163.619 21.38L164.676 22.9134C165.264 23.7686 167.849 27.16 170.375 30.4333L174.958 36.4197L177.366 36.5082L179.775 36.5967V23.8866V11.1765L177.014 11.265L174.194 11.3535L173.9 18.49L173.606 25.656L171.139 22.3236C169.788 20.5248 167.32 17.2809 165.734 15.1871L162.796 11.3535L160.153 11.265L157.45 11.1765V23.8866Z" fill="#ECC140"/>
<path d="M216.199 23.8858V36.5664H225.599H234.999V33.9123V31.2583H228.537H222.074V28.7516V26.245H227.949H233.824V23.7384V21.2317H227.949H222.074V18.8726V16.5134H228.537H234.999V13.8593V11.2052H225.599H216.199V23.8858Z" fill="#ECC140"/>
<path d="M20.4439 20.7608L17.6826 23.5624L20.5026 26.3344L23.3226 29.1064L26.1426 26.3344L29.0214 23.5919L26.2601 20.7903C24.7326 19.2569 23.4401 17.9888 23.3226 17.9888C23.2639 17.9888 21.9126 19.2274 20.4439 20.7608Z" fill="#ECC140"/>
<path d="M2.40788 20.6423C1.11538 21.9693 -0.00086695 23.2964 0.057883 23.5618C0.057883 23.8272 1.17413 25.1542 2.58413 26.5402L5.16913 29.0469L7.87163 26.2748L10.6329 23.5323L8.57663 21.4385C5.11038 17.7818 5.22788 17.8113 2.40788 20.6423Z" fill="#ECC140"/>
<path d="M38.5401 20.9073L35.9551 23.5614L38.6576 26.1565C40.1263 27.572 41.3601 28.8106 41.4776 28.8696C41.5363 28.8991 42.8876 27.7195 44.4151 26.2155L47.1176 23.473L44.5913 20.9958C43.1813 19.6393 41.8301 18.4597 41.5951 18.4007C41.3601 18.3122 39.9501 19.4329 38.5401 20.9073Z" fill="#ECC140"/>
<path d="M28.1993 31.2877C25.8493 33.6173 23.7931 35.6226 23.5581 35.7406C23.3231 35.8881 21.2668 34.0597 18.9168 31.7005C16.5668 29.3413 14.4518 27.4245 14.2168 27.4245C13.9818 27.4245 12.6306 28.6041 11.2206 30.0196L8.69434 32.6147L16.0381 39.9576L23.3818 47.3301L30.7256 39.9576L38.0693 32.5852L35.2493 29.8132L32.4881 27.0116L28.1993 31.2877Z" fill="#ECC140"/>
</svg>
