<svg width="12" height="20" viewBox="0 0 12 20" fill="none" xmlns="http://www.w3.org/2000/svg">
<path d="M8.37705 0.117188C7.08088 0.117188 5.83779 0.632092 4.92125 1.54863C4.00472 2.46516 3.48981 3.70825 3.48981 5.00443V7.72543H0.874476C0.743445 7.72543 0.636719 7.83111 0.636719 7.96319V11.556C0.636719 11.687 0.742389 11.7937 0.874476 11.7937H3.48981V19.1642C3.48981 19.2953 3.59548 19.402 3.72757 19.402H7.32035C7.45138 19.402 7.55811 19.2963 7.55811 19.1642V11.7937H10.1967C10.3055 11.7937 10.4006 11.7198 10.4271 11.6141L11.3252 8.02131C11.3341 7.98625 11.3348 7.94964 11.3274 7.91426C11.3199 7.87888 11.3045 7.84566 11.2823 7.81713C11.2601 7.7886 11.2317 7.76552 11.1992 7.74963C11.1667 7.73374 11.131 7.72546 11.0949 7.72543H7.55811V5.00443C7.55811 4.89688 7.57929 4.79039 7.62045 4.69103C7.6616 4.59167 7.72193 4.5014 7.79797 4.42535C7.87402 4.3493 7.9643 4.28898 8.06366 4.24782C8.16302 4.20667 8.26951 4.18549 8.37705 4.18549H11.1245C11.2555 4.18549 11.3622 4.07982 11.3622 3.94773V0.354945C11.3622 0.223914 11.2566 0.117188 11.1245 0.117188H8.37705Z" fill="#553AF5"/>
</svg>
