<svg width="28" height="21" viewBox="0 0 28 21" fill="none" xmlns="http://www.w3.org/2000/svg">
<path d="M0.620197 21V4.7701C0.620197 4.06242 0.797115 3.41993 1.15095 2.84262C1.50479 2.24669 1.97036 1.7718 2.54767 1.41796C3.14361 1.06413 3.79541 0.88721 4.50308 0.88721H16.8222C17.5298 0.88721 18.1816 1.06413 18.7776 1.41796C19.3735 1.7718 19.8484 2.24669 20.2022 2.84262C20.5561 3.41993 20.733 4.06242 20.733 4.7701V21H17.0177V14.2399H4.30754V21H0.620197ZM4.30754 10.5525H17.0177V4.9377C17.0177 4.84459 16.9805 4.7701 16.906 4.71423C16.8315 4.63974 16.7477 4.60249 16.6546 4.60249H4.64275C4.54964 4.60249 4.46584 4.63974 4.39134 4.71423C4.33548 4.7701 4.30754 4.84459 4.30754 4.9377V10.5525ZM23.5247 21V0.88721H27.1841V21H23.5247Z" fill="#8B78F8"/>
</svg>
