<svg width="1818" height="652" viewBox="0 0 1818 652" fill="none" xmlns="http://www.w3.org/2000/svg">
<g opacity="0.6">
<g opacity="0.131">
<path d="M248.599 76.8787C239.434 76.8787 230.263 77.92 221.341 79.9738C212.528 82.0024 203.929 85.025 195.783 88.9574C187.638 92.8898 179.926 97.7414 172.862 103.377C165.711 109.083 159.202 115.611 153.514 122.782L27.1749 282.057C18.6054 292.861 12.001 304.917 7.54537 317.891C3.20357 330.533 1.00213 343.736 1.00213 357.131C1.00213 370.527 3.20357 383.729 7.54524 396.372C12.001 409.346 18.6054 421.402 27.1749 432.206L153.514 591.481C159.202 598.651 165.711 605.18 172.862 610.885C179.926 616.521 187.637 621.373 195.783 625.305C203.929 629.238 212.528 632.26 221.341 634.289C230.263 636.343 239.434 637.384 248.599 637.384H576.468C585.633 637.384 594.804 636.343 603.725 634.289C612.539 632.26 621.138 629.238 629.283 625.305C637.429 621.373 645.141 616.521 652.204 610.885C659.355 605.18 665.865 598.651 671.552 591.481L797.891 432.206C806.461 421.402 813.065 409.346 817.521 396.372C821.863 383.729 824.064 370.527 824.064 357.131C824.064 343.736 821.863 330.533 817.521 317.891C813.065 304.917 806.461 292.861 797.891 282.057L671.552 122.782C665.865 115.611 659.355 109.083 652.204 103.377C645.141 97.7414 637.429 92.8898 629.283 88.9574C621.138 85.025 612.539 82.0024 603.725 79.9738C594.804 77.92 585.633 76.8787 576.468 76.8787H248.599ZM248.599 75.8788H576.468C613.834 75.8788 649.149 92.9275 672.338 122.161L798.677 281.437C833.863 325.795 833.863 388.468 798.677 432.826L672.338 592.101C649.149 621.335 613.834 638.384 576.468 638.384H248.599C211.232 638.384 175.917 621.335 152.728 592.101L26.3891 432.826C-8.79643 388.468 -8.79631 325.795 26.3891 281.437L152.728 122.161C175.917 92.9275 211.232 75.8788 248.599 75.8788Z" fill="white"/>
</g>
<g opacity="0.131">
<path d="M912.808 89.5257C903.643 89.5257 894.472 90.5671 885.55 92.6208C876.737 94.6494 868.138 97.6721 859.992 101.604C851.846 105.537 844.135 110.388 837.071 116.025C829.92 121.73 823.411 128.258 817.723 135.429L691.384 294.704C682.814 305.508 676.21 317.564 671.754 330.538C667.413 343.18 665.211 356.383 665.211 369.778C665.211 383.174 667.413 396.377 671.754 409.019C676.21 421.993 682.814 434.049 691.384 444.853L817.723 604.128C823.411 611.298 829.92 617.827 837.071 623.532C844.135 629.168 851.846 634.02 859.992 637.952C868.138 641.885 876.737 644.907 885.55 646.936C894.472 648.99 903.643 650.031 912.808 650.031H1240.68C1249.84 650.031 1259.01 648.99 1267.93 646.936C1276.75 644.907 1285.35 641.885 1293.49 637.952C1301.64 634.02 1309.35 629.168 1316.41 623.532C1323.56 617.827 1330.07 611.298 1335.76 604.128L1462.1 444.853C1470.67 434.049 1477.27 421.993 1481.73 409.019C1486.07 396.377 1488.27 383.174 1488.27 369.778C1488.27 356.383 1486.07 343.18 1481.73 330.538C1477.27 317.564 1470.67 305.508 1462.1 294.704L1335.76 135.429C1330.07 128.258 1323.56 121.73 1316.41 116.025C1309.35 110.388 1301.64 105.537 1293.49 101.604C1285.35 97.6721 1276.75 94.6494 1267.93 92.6208C1259.01 90.5671 1249.84 89.5257 1240.68 89.5257H912.808ZM912.808 88.5259H1240.68C1278.04 88.5259 1313.36 105.575 1336.55 134.808L1462.89 294.084C1498.07 338.442 1498.07 401.115 1462.89 445.473L1336.55 604.748C1313.36 633.982 1278.04 651.031 1240.68 651.031H912.808C875.441 651.031 840.126 633.982 816.937 604.748L690.598 445.473C655.413 401.115 655.413 338.442 690.598 294.084L816.937 134.808C840.126 105.575 875.441 88.5259 912.808 88.5259Z" fill="white"/>
</g>
<g opacity="0.131">
<path d="M1241.53 0.999813C1232.37 0.999813 1223.2 2.04118 1214.27 4.09494C1205.46 6.12355 1196.86 9.14617 1188.72 13.0785C1180.57 17.0109 1172.86 21.8626 1165.79 27.4986C1158.64 33.2041 1152.13 39.7325 1146.45 46.9028L1020.11 206.178C1011.54 216.982 1004.93 229.038 1000.48 242.012C996.136 254.654 993.935 267.857 993.935 281.253C993.935 294.648 996.136 307.851 1000.48 320.493C1004.93 333.467 1011.54 345.523 1020.11 356.327L1146.45 515.602C1152.13 522.772 1158.64 529.301 1165.79 535.006C1172.86 540.642 1180.57 545.494 1188.72 549.426C1196.86 553.359 1205.46 556.381 1214.27 558.41C1223.2 560.464 1232.37 561.505 1241.53 561.505H1569.4C1578.57 561.505 1587.74 560.464 1596.66 558.41C1605.47 556.381 1614.07 553.359 1622.22 549.426C1630.36 545.494 1638.07 540.642 1645.14 535.006C1652.29 529.301 1658.8 522.772 1664.48 515.602L1790.82 356.327C1799.39 345.523 1806 333.467 1810.45 320.493C1814.8 307.851 1817 294.648 1817 281.253C1817 267.857 1814.8 254.654 1810.45 242.012C1806 229.038 1799.39 216.982 1790.82 206.178L1664.48 46.9028C1658.8 39.7325 1652.29 33.2041 1645.14 27.4986C1638.07 21.8626 1630.36 17.0109 1622.22 13.0785C1614.07 9.14617 1605.47 6.12355 1596.66 4.09494C1587.74 2.04118 1578.57 0.999813 1569.4 0.999813H1241.53ZM1241.53 0H1569.4C1606.77 0 1642.08 17.0487 1665.27 46.2823L1791.61 205.558C1826.8 249.916 1826.8 312.589 1791.61 356.947L1665.27 516.223C1642.08 545.456 1606.77 562.505 1569.4 562.505H1241.53C1204.16 562.505 1168.85 545.456 1145.66 516.223L1019.32 356.947C984.136 312.589 984.136 249.916 1019.32 205.558L1145.66 46.2823C1168.85 17.0487 1204.16 0 1241.53 0Z" fill="white"/>
</g>
<g style="mix-blend-mode:luminosity">
<path d="M476.334 635.554H429.012V639.769H476.334V635.554Z" fill="url(#paint0_linear_287_264)"/>
<path d="M1094.3 443.537L1063.88 407.37L1060.65 410.079L1091.06 446.246L1094.3 443.537Z" fill="url(#paint1_linear_287_264)"/>
<path d="M1408.35 220.195L1377.93 184.028L1374.7 186.737L1405.11 222.905L1408.35 220.195Z" fill="url(#paint2_linear_287_264)"/>
<path d="M656.892 105.647L686.043 142.851L689.372 140.254L660.222 103.05L656.892 105.647Z" fill="url(#paint3_linear_287_264)"/>
</g>
</g>
<defs>
<linearGradient id="paint0_linear_287_264" x1="474.157" y1="637.662" x2="429.012" y2="637.662" gradientUnits="userSpaceOnUse">
<stop stop-color="#268AFF"/>
<stop offset="1" stop-color="#134580" stop-opacity="0"/>
</linearGradient>
<linearGradient id="paint1_linear_287_264" x1="1063.66" y1="410.388" x2="1092.6" y2="444.958" gradientUnits="userSpaceOnUse">
<stop stop-color="#FF2626"/>
<stop offset="1" stop-color="#134580" stop-opacity="0"/>
</linearGradient>
<linearGradient id="paint2_linear_287_264" x1="1377.71" y1="187.046" x2="1406.65" y2="221.616" gradientUnits="userSpaceOnUse">
<stop stop-color="#26FF71"/>
<stop offset="1" stop-color="#134580" stop-opacity="0"/>
</linearGradient>
<linearGradient id="paint3_linear_287_264" x1="686.367" y1="139.841" x2="658.637" y2="104.286" gradientUnits="userSpaceOnUse">
<stop stop-color="#553AF5"/>
<stop offset="1" stop-color="#134580" stop-opacity="0"/>
</linearGradient>
</defs>
</svg>
