<svg width="51" height="50" viewBox="0 0 51 50" fill="none" xmlns="http://www.w3.org/2000/svg">
<g clip-path="url(#clip0_287_182)">
<path d="M33.0151 18.3716C29.3603 18.3716 26.3867 21.345 26.3867 25C26.3867 28.655 29.3603 31.6284 33.0151 31.6284C36.67 31.6284 39.6436 28.655 39.6436 25C39.6436 21.345 36.6701 18.3716 33.0151 18.3716ZM33.0151 30.0626C30.2236 30.0626 27.9525 27.7915 27.9525 25C27.9525 22.2085 30.2236 19.9374 33.0151 19.9374C35.8066 19.9374 38.0777 22.2085 38.0777 25C38.0778 27.7915 35.8067 30.0626 33.0151 30.0626Z" fill="#553AF5"/>
<path d="M43.8717 22.5472H43.5282C43.2613 21.3917 42.8114 20.304 42.185 19.3L42.4265 19.0585C43.0572 18.4278 43.0572 17.4013 42.4265 16.7705L41.2455 15.5895C40.6147 14.9586 39.5882 14.9586 38.9574 15.5895L38.7159 15.831C37.7119 15.2046 36.6243 14.7547 35.4687 14.4877V14.1443C35.4689 13.2519 34.7432 12.5261 33.851 12.5261H32.1809C31.2887 12.5261 30.5629 13.2519 30.5629 14.1441V14.4875C29.4073 14.7544 28.3196 15.2043 27.3157 15.8308L27.0742 15.5893C26.4435 14.9584 25.4169 14.9584 24.7861 15.5893L23.6052 16.7704C22.9744 17.4011 22.9744 18.4276 23.6052 19.0584L23.8467 19.3C23.2203 20.304 22.7704 21.3917 22.5034 22.5471H22.16C21.2678 22.5471 20.542 23.2729 20.542 24.1651V25.8352C20.542 26.7274 21.2678 27.4532 22.16 27.4532H22.5034C22.7703 28.6086 23.2202 29.6964 23.8467 30.7002L23.6051 30.9418C22.9744 31.5726 22.9744 32.5991 23.6051 33.2299L24.7859 34.4108C25.0916 34.7165 25.4979 34.8848 25.93 34.8848C26.3621 34.8848 26.7685 34.7166 27.074 34.4109L27.3155 34.1694C28.3196 34.7958 29.4073 35.2458 30.5627 35.5127V35.8562C30.5627 36.7484 31.2885 37.4742 32.1807 37.4742H33.8508C34.743 37.4742 35.4687 36.7484 35.4687 35.8562V35.5127C36.6242 35.2458 37.7118 34.7959 38.7159 34.1694L38.9574 34.4109C39.2631 34.7166 39.6693 34.8849 40.1015 34.8849C40.5336 34.8849 40.9399 34.7167 41.2455 34.411L42.4265 33.23C43.0571 32.5993 43.0571 31.5728 42.4265 30.9419L42.185 30.7004C42.8113 29.6964 43.2613 28.6088 43.5282 27.4534H43.8717C44.7639 27.4534 45.4896 26.7276 45.4896 25.8354V24.1653C45.4896 23.273 44.7639 22.5472 43.8717 22.5472ZM43.9241 25.835C43.9241 25.8638 43.9008 25.8872 43.872 25.8872H42.8867C42.5045 25.8872 42.178 26.1632 42.1146 26.5402C41.8817 27.9251 41.3521 29.2056 40.5402 30.3458C40.3186 30.6573 40.3541 31.0832 40.6245 31.3535L41.3198 32.0488C41.3401 32.0691 41.3401 32.1023 41.3198 32.1227L40.1389 33.3038C40.1352 33.3075 40.1236 33.319 40.1021 33.319C40.0805 33.319 40.0689 33.3075 40.0651 33.3038L39.3698 32.6084C39.0997 32.3382 38.6735 32.3026 38.3622 32.5242C37.2218 33.336 35.9414 33.8657 34.5565 34.0986C34.1796 34.162 33.9035 34.4883 33.9035 34.8707V35.8559C33.9035 35.8847 33.8802 35.9081 33.8514 35.9081H32.181C32.1521 35.9081 32.1288 35.8847 32.1288 35.8559V34.8707C32.1288 34.4884 31.8527 34.162 31.4758 34.0986C30.0908 33.8657 28.8104 33.336 27.6701 32.5242C27.5333 32.4268 27.3744 32.3791 27.2164 32.3791C27.0146 32.3791 26.8141 32.4568 26.6625 32.6083L25.9671 33.3038C25.9633 33.3076 25.9519 33.319 25.9303 33.319C25.9087 33.319 25.8972 33.3075 25.8934 33.3038L24.7125 32.1229C24.6922 32.1026 24.6922 32.0694 24.7125 32.049L25.4078 31.3537C25.678 31.0834 25.7137 30.6574 25.4921 30.346C24.6803 29.2058 24.1506 27.9253 23.9177 26.5404C23.8543 26.1634 23.5279 25.8874 23.1456 25.8874H22.1602C22.1313 25.8874 22.108 25.864 22.108 25.8352V24.1651C22.108 24.1363 22.1313 24.1129 22.1602 24.1129H23.1454C23.5276 24.1129 23.8541 23.8369 23.9175 23.4599C24.1504 22.0749 24.6801 20.7945 25.4919 19.6542C25.7136 19.3428 25.678 18.9169 25.4076 18.6466L24.7123 17.9513C24.692 17.931 24.692 17.8979 24.7123 17.8775L25.8933 16.6965C25.9136 16.6763 25.9467 16.6763 25.9671 16.6965L26.6624 17.3918C26.9325 17.6621 27.3587 17.6976 27.67 17.4761C28.8103 16.6643 30.0907 16.1346 31.4757 15.9017C31.8526 15.8383 32.1287 15.512 32.1287 15.1296V14.1442C32.1287 14.1154 32.1521 14.092 32.1809 14.092H33.851C33.8798 14.092 33.9031 14.1154 33.9031 14.1442V15.1294C33.9031 15.5117 34.1792 15.8381 34.5562 15.9015C35.9413 16.1344 37.2218 16.6641 38.362 17.4759C38.6733 17.6976 39.0993 17.6621 39.3696 17.3917L40.0649 16.6963C40.0853 16.6761 40.1184 16.6761 40.1388 16.6963L41.3197 17.8773C41.34 17.8976 41.34 17.9307 41.3197 17.9511L40.6244 18.6464C40.3542 18.9167 40.3186 19.3427 40.5401 19.6541C41.352 20.7943 41.8816 22.0748 42.1146 23.4597C42.1779 23.8367 42.5043 24.1127 42.8866 24.1127H43.8719C43.9007 24.1127 43.924 24.1361 43.924 24.1649V25.835H43.9241Z" fill="#553AF5"/>
<path d="M33.0156 7.51562H1.28291C0.850488 7.51562 0.5 7.86621 0.5 8.29853C0.5 8.73086 0.850488 9.08145 1.28291 9.08145H33.0156C41.7932 9.08145 48.9342 16.2225 48.9342 25C48.9342 33.7775 41.7933 40.9186 33.0156 40.9186C25.1494 40.9186 18.5816 35.2267 17.3173 27.6548L18.0121 28.5835C18.2711 28.9296 18.7617 29.0003 19.108 28.7413C19.4541 28.4823 19.5249 27.9916 19.2658 27.6454L16.9165 24.5055C16.7535 24.2878 16.4895 24.1706 16.2186 24.1948C15.9477 24.2195 15.7092 24.3829 15.5883 24.6266L13.8455 28.1396C13.6533 28.527 13.8116 28.9968 14.1989 29.189C14.3107 29.2444 14.4294 29.2707 14.5462 29.2707C14.8343 29.2707 15.1114 29.1111 15.2481 28.8356L15.7563 27.8111C17.1021 36.1802 24.3397 42.4845 33.0154 42.4845C42.6565 42.4844 50.5 34.6409 50.5 25C50.5 15.3591 42.6565 7.51562 33.0156 7.51562Z" fill="#553AF5"/>
<path d="M26.3346 10.856H19.654C19.2217 10.856 18.8711 11.2064 18.8711 11.6389C18.8711 12.0713 19.2216 12.4218 19.654 12.4218H26.3346C26.7669 12.4218 27.1175 12.0713 27.1175 11.6389C27.1175 11.2064 26.767 10.856 26.3346 10.856Z" fill="#553AF5"/>
<path d="M16.3141 10.856H1.28291C0.850586 10.856 0.5 11.2064 0.5 11.6389C0.5 12.0713 0.850488 12.4218 1.28291 12.4218H16.3142C16.7465 12.4218 17.0971 12.0713 17.0971 11.6389C17.0971 11.2064 16.7465 10.856 16.3141 10.856Z" fill="#553AF5"/>
<path d="M20.4896 14.1963H16.3142C15.8818 14.1963 15.5312 14.5468 15.5312 14.9792C15.5312 15.4116 15.8817 15.7621 16.3142 15.7621H20.4896C20.9219 15.7621 21.2725 15.4116 21.2725 14.9792C21.2725 14.5468 20.9219 14.1963 20.4896 14.1963Z" fill="#553AF5"/>
<path d="M12.9739 14.1963H1.28291C0.850586 14.1963 0.5 14.5468 0.5 14.9792C0.5 15.4116 0.850488 15.7621 1.28291 15.7621H12.9739C13.4062 15.7621 13.7568 15.4116 13.7568 14.9792C13.7568 14.5468 13.4062 14.1963 12.9739 14.1963Z" fill="#553AF5"/>
<path d="M15.4787 17.5366H12.1384C11.7061 17.5366 11.3555 17.8871 11.3555 18.3195C11.3555 18.752 11.706 19.1024 12.1384 19.1024H15.4787C15.911 19.1024 16.2616 18.752 16.2616 18.3195C16.2616 17.8871 15.9111 17.5366 15.4787 17.5366Z" fill="#553AF5"/>
<path d="M8.79854 17.5365H1.28291C0.850586 17.5365 0.5 17.887 0.5 18.3194C0.5 18.7518 0.850488 19.1023 1.28291 19.1023H8.79854C9.23086 19.1023 9.58145 18.7518 9.58145 18.3194C9.58145 17.887 9.23086 17.5365 8.79854 17.5365Z" fill="#553AF5"/>
<path d="M11.3036 20.8768H9.6335C9.20117 20.8768 8.85059 21.2273 8.85059 21.6597C8.85059 22.0922 9.20107 22.4427 9.6335 22.4427H11.3036C11.7359 22.4427 12.0865 22.0922 12.0865 21.6597C12.0865 21.2273 11.736 20.8768 11.3036 20.8768Z" fill="#553AF5"/>
<path d="M6.29336 20.8768H1.28291C0.850586 20.8768 0.5 21.2273 0.5 21.6597C0.5 22.0922 0.850488 22.4427 1.28291 22.4427H6.29336C6.72568 22.4427 7.07627 22.0922 7.07627 21.6597C7.07627 21.2273 6.72578 20.8768 6.29336 20.8768Z" fill="#553AF5"/>
</g>
<defs>
<clipPath id="clip0_287_182">
<rect width="50" height="50" fill="white" transform="translate(0.5)"/>
</clipPath>
</defs>
</svg>
