<svg width="22" height="22" viewBox="0 0 22 22" fill="none" xmlns="http://www.w3.org/2000/svg">
<path d="M12.5182 0.193683C13.2893 0.190724 14.0604 0.198474 14.8313 0.21693L15.0363 0.224327C15.273 0.232781 15.5065 0.243348 15.7887 0.256028C16.913 0.308863 17.6802 0.486389 18.3533 0.747395C19.0507 1.0158 19.6382 1.3793 20.2257 1.96683C20.7629 2.49476 21.1787 3.13337 21.4441 3.83824C21.7051 4.51136 21.8827 5.27958 21.9355 6.40391C21.9482 6.685 21.9587 6.91959 21.9672 7.15629L21.9735 7.36129C21.9923 8.13182 22.0004 8.90259 21.9978 9.67335L21.9989 10.4616V11.8459C22.0015 12.617 21.9934 13.3882 21.9746 14.159L21.9682 14.364C21.9598 14.6007 21.9492 14.8343 21.9365 15.1164C21.8837 16.2407 21.7041 17.0079 21.4441 17.681C21.1796 18.3867 20.7637 19.0258 20.2257 19.5535C19.6974 20.0906 19.0584 20.5064 18.3533 20.7719C17.6802 21.0329 16.913 21.2104 15.7887 21.2632C15.5065 21.2759 15.273 21.2865 15.0363 21.2949L14.8313 21.3013C14.0604 21.3201 13.2893 21.3282 12.5182 21.3256L11.7299 21.3266H10.3466C9.57553 21.3293 8.80442 21.3211 8.03353 21.3023L7.82853 21.296C7.57768 21.2869 7.32688 21.2763 7.07616 21.2643C5.95183 21.2115 5.18466 21.0318 4.51049 20.7719C3.80533 20.507 3.16661 20.0912 2.63907 19.5535C2.10126 19.0255 1.6851 18.3864 1.41964 17.681C1.15863 17.0079 0.981105 16.2407 0.92827 15.1164C0.916501 14.8657 0.905934 14.6149 0.896569 14.364L0.891285 14.159C0.871803 13.3882 0.862997 12.6171 0.864868 11.8459V9.67335C0.861918 8.90259 0.869668 8.13183 0.888115 7.36129L0.895512 7.15629C0.903966 6.91959 0.914532 6.685 0.927213 6.40391C0.980048 5.27853 1.15757 4.51242 1.41858 3.83824C1.6842 3.13302 2.10117 2.49459 2.64013 1.96788C3.16731 1.42976 3.80563 1.01323 4.51049 0.747395C5.18466 0.486389 5.95077 0.308863 7.07616 0.256028L7.82853 0.224327L8.03353 0.219044C8.80406 0.199572 9.57482 0.190765 10.3456 0.192626L12.5182 0.193683ZM11.4319 5.47719C10.7318 5.46729 10.0368 5.59662 9.38714 5.85767C8.7375 6.11872 8.14622 6.50629 7.64767 6.99784C7.14912 7.48939 6.75323 8.07513 6.48302 8.72101C6.2128 9.36689 6.07365 10.06 6.07365 10.7602C6.07365 11.4603 6.2128 12.1534 6.48302 12.7993C6.75323 13.4452 7.14912 14.0309 7.64767 14.5225C8.14622 15.014 8.7375 15.4016 9.38714 15.6627C10.0368 15.9237 10.7318 16.053 11.4319 16.0431C12.8332 16.0431 14.177 15.4865 15.1679 14.4956C16.1587 13.5048 16.7154 12.1609 16.7154 10.7596C16.7154 9.35836 16.1587 8.01448 15.1679 7.02363C14.177 6.03278 12.8332 5.47719 11.4319 5.47719ZM11.4319 7.59059C11.853 7.58283 12.2714 7.65906 12.6627 7.81483C13.054 7.9706 13.4104 8.20278 13.7109 8.49782C14.0115 8.79285 14.2503 9.14482 14.4133 9.53317C14.5763 9.92152 14.6603 10.3385 14.6604 10.7596C14.6605 11.1808 14.5766 11.5978 14.4137 11.9862C14.2508 12.3746 14.0122 12.7266 13.7117 13.0218C13.4112 13.3169 13.055 13.5492 12.6637 13.7051C12.2724 13.861 11.854 13.9374 11.4329 13.9297C10.5922 13.9297 9.78584 13.5957 9.19133 13.0012C8.59682 12.4067 8.26283 11.6004 8.26283 10.7596C8.26283 9.91887 8.59682 9.11255 9.19133 8.51803C9.78584 7.92353 10.5922 7.58953 11.4329 7.58953L11.4319 7.59059ZM16.9796 3.89214C16.6387 3.90578 16.3163 4.0508 16.0799 4.29682C15.8435 4.54284 15.7115 4.87078 15.7115 5.21196C15.7115 5.55313 15.8435 5.88107 16.0799 6.12709C16.3163 6.37311 16.6387 6.51813 16.9796 6.53178C17.3299 6.53178 17.6658 6.39261 17.9136 6.1449C18.1613 5.89719 18.3004 5.56122 18.3004 5.2109C18.3004 4.86058 18.1613 4.52461 17.9136 4.2769C17.6658 4.02919 17.3299 3.89002 16.9796 3.89002V3.89214Z" fill="#553AF5"/>
</svg>
