<svg width="21" height="17" viewBox="0 0 21 17" fill="none" xmlns="http://www.w3.org/2000/svg">
<path fill-rule="evenodd" clip-rule="evenodd" d="M4.04053 0.595557C4.49604 0.225202 5.16106 0.387401 5.45166 0.896977C5.71794 1.36195 5.57331 1.94722 5.16781 2.29594C4.27864 3.05664 3.56502 4.00112 3.07615 5.06427C2.58728 6.12742 2.33479 7.28394 2.33609 8.4541C2.33506 9.62422 2.58767 10.7807 3.07652 11.8438C3.56537 12.9069 4.27885 13.8514 5.16781 14.6123C5.57331 14.961 5.71794 15.5449 5.45166 16.0112C5.16106 16.5208 4.49604 16.683 4.04053 16.3127C2.87314 15.3628 1.93236 14.1645 1.28676 12.805C0.641151 11.4455 0.306982 9.9591 0.3086 8.4541C0.306982 6.94911 0.641151 5.46271 1.28676 4.10322C1.93236 2.74373 2.87314 1.5454 4.04053 0.595557ZM15.4404 0.896977C15.1742 1.36195 15.3188 1.94722 15.7243 2.29594C16.6135 3.05658 17.3272 4.00105 17.8161 5.06421C18.3049 6.12737 18.5574 7.28393 18.556 8.4541C18.5574 9.62428 18.3049 10.7808 17.8161 11.844C17.3272 12.9072 16.6135 13.8516 15.7243 14.6123C15.3188 14.961 15.1742 15.5449 15.4404 16.0112C15.731 16.5208 16.3961 16.683 16.8516 16.3127C18.019 15.3628 18.9597 14.1645 19.6053 12.805C20.2509 11.4455 20.5851 9.9591 20.5835 8.4541C20.5851 6.94911 20.2509 5.46271 19.6053 4.10322C18.9597 2.74373 18.019 1.5454 16.8516 0.595557C16.3961 0.225202 15.731 0.387401 15.4404 0.896977ZM6.06532 4.23422C6.49109 3.79223 7.19666 3.95037 7.50078 4.48293C7.75759 4.92898 7.63189 5.48856 7.30614 5.88866C6.71326 6.61205 6.38983 7.51879 6.39107 8.4541C6.39107 9.4273 6.73439 10.3207 7.30614 11.0209C7.63189 11.4196 7.75624 11.9779 7.50078 12.4266C7.19666 12.9578 6.49109 13.116 6.06532 12.674C4.97168 11.5417 4.3614 10.0283 4.36358 8.4541C4.36358 6.81454 5.01237 5.32772 6.06667 4.23422H6.06532ZM13.3913 4.48293C13.1345 4.92898 13.2588 5.48856 13.586 5.88866C14.1577 6.58611 14.501 7.48091 14.501 8.4541C14.501 9.4273 14.1577 10.3207 13.586 11.0209C13.2588 11.4196 13.1358 11.9779 13.3913 12.4266C13.6954 12.9578 14.401 13.116 14.8268 12.674C15.9205 11.5417 16.5308 10.0284 16.5285 8.4541C16.5285 6.81454 15.8797 5.32772 14.8254 4.23422C14.401 3.79223 13.6954 3.95037 13.3913 4.48293ZM10.446 10.4816C10.9838 10.4816 11.4995 10.268 11.8797 9.88776C12.2599 9.50753 12.4735 8.99183 12.4735 8.4541C12.4735 7.91638 12.2599 7.40068 11.8797 7.02045C11.4995 6.64023 10.9838 6.42662 10.446 6.42662C9.90832 6.42662 9.39262 6.64023 9.01239 7.02045C8.63217 7.40068 8.41856 7.91638 8.41856 8.4541C8.41856 8.99183 8.63217 9.50753 9.01239 9.88776C9.39262 10.268 9.90832 10.4816 10.446 10.4816Z" fill="white"/>
</svg>
