<svg width="53" height="57" viewBox="0 0 53 57" fill="none" xmlns="http://www.w3.org/2000/svg">
<g filter="url(#filter0_d_287_137)">
<path d="M47.9766 29.0791C47.5283 28.3691 46.8457 27.8984 46.0557 27.7539L37.2402 26.1357C37.2832 24.3184 36.8447 22.4678 35.8711 20.7812C35.4229 20.0049 34.8789 19.2959 34.2529 18.667C35.0557 17.4111 35.6592 15.8643 35.6094 13.6855C35.6055 8.93359 31.7393 5.06934 26.9863 5.06934C22.2334 5.06934 18.3672 8.93359 18.3633 13.6855C18.3135 15.8643 18.916 17.4111 19.7197 18.667C18.2139 20.1777 17.2041 22.1475 16.8584 24.2695C16.4805 26.5928 16.9219 28.998 18.1016 31.04C19.4717 33.4131 21.6846 35.1113 24.3311 35.8203C25.2148 36.0576 26.1123 36.1738 27.0029 36.1738C28.7803 36.1738 30.5352 35.708 32.1162 34.7949C33.7647 33.8428 35.0488 32.499 35.9199 30.9492L44.3926 33.9658C44.6982 34.0752 45.0156 34.1289 45.334 34.1289C45.8037 34.1289 46.2764 34.0117 46.7188 33.7783C47.5352 33.3496 48.1397 32.5938 48.3779 31.7041C48.6143 30.8154 48.4688 29.8584 47.9766 29.0791ZM19.5332 13.7061C19.5332 13.7012 19.5332 13.6973 19.5332 13.6924C19.5332 9.58399 22.876 6.24121 26.9844 6.24121C31.0928 6.24121 34.4355 9.58399 34.4355 13.6924V13.7061C34.5068 16.7607 33.1211 18.3789 31.7803 19.9434C30.877 20.998 30.0195 22.001 29.6826 23.3438H29.3086V21.7988C29.3086 21.4756 29.0459 21.2129 28.7227 21.2129H28.3477L28.9707 18.3594C29.2432 18.5283 29.5635 18.627 29.9072 18.627C30.8945 18.627 31.6973 17.8242 31.6973 16.8369C31.6973 15.8496 30.8945 15.0469 29.9072 15.0469C28.9482 15.0469 28.165 15.8057 28.1211 16.7549L27.1475 21.2129H26.8154L25.8457 16.7754C25.8027 15.8262 25.0195 15.0664 24.0596 15.0664C23.0723 15.0664 22.2695 15.8691 22.2695 16.8564C22.2695 17.8438 23.0723 18.6465 24.0596 18.6465C24.4033 18.6465 24.7236 18.5479 24.9961 18.3789L25.6152 21.2129H25.2441C24.9209 21.2129 24.6582 21.4756 24.6582 21.7988V23.3438H24.2842C23.9482 22.001 23.0898 20.998 22.1865 19.9434C20.8486 18.3789 19.4619 16.7607 19.5332 13.7061ZM32.4238 22.7705C34.1553 25.7695 33.124 29.6191 30.125 31.3506C29.1387 31.9199 28.0605 32.1904 26.9951 32.1904C24.8232 32.1904 22.707 31.0635 21.5449 29.0508C20.1943 26.7109 20.4873 23.8262 22.2148 21.8213C22.7188 22.4922 23.0977 23.1709 23.2197 23.9785V27.8916C23.2197 28.0537 23.2852 28.2002 23.3926 28.3066L24.7168 29.626C25.1504 30.0586 25.6689 30.2773 26.2578 30.2773H27.71C28.2988 30.2773 28.8174 30.0586 29.252 29.626L30.5762 28.3066C30.6826 28.2002 30.749 28.0537 30.749 27.8916V23.9785C30.8711 23.1709 31.25 22.4932 31.7539 21.8223C32.0049 22.1152 32.2295 22.4326 32.4238 22.7705ZM25.832 22.3848H28.1367V23.3438H25.832V22.3848ZM29.5772 24.5156V25.3252H24.3926V24.5156H29.5772ZM24.3926 26.4961H29.5772V27.3057H24.3926V26.4961ZM28.7451 28.4775L28.4258 28.7959C28.2139 29.0068 27.9863 29.1055 27.7119 29.1055H26.2598C25.9844 29.1055 25.7578 29.0068 25.5459 28.7959L25.2266 28.4775H28.7451ZM29.29 16.8369C29.29 16.4961 29.5674 16.2188 29.9082 16.2188C30.249 16.2188 30.5264 16.4961 30.5264 16.8369C30.5264 17.1777 30.249 17.4551 29.9082 17.4551C29.5674 17.4551 29.29 17.1777 29.29 16.8369ZM24.6797 16.8574C24.6797 17.1982 24.4023 17.4756 24.0615 17.4756C23.7207 17.4756 23.4434 17.1982 23.4434 16.8574C23.4434 16.5166 23.7207 16.2393 24.0615 16.2393C24.4023 16.2393 24.6797 16.5166 24.6797 16.8574ZM31.5283 33.7803C29.4258 34.9941 26.9775 35.3164 24.6328 34.6885C22.2881 34.0605 20.3281 32.5566 19.1152 30.4541C17.0986 26.9609 17.6631 22.5166 20.4111 19.6357C20.7041 20.0098 21.0059 20.3623 21.2998 20.7051C21.3555 20.7705 21.4111 20.835 21.4668 20.8994C19.293 23.2842 18.8926 26.7988 20.5313 29.6357C21.9102 32.0244 24.4209 33.3603 26.998 33.3603C28.2617 33.3603 29.541 33.0391 30.7119 32.3633C34.2705 30.3086 35.4941 25.7412 33.4395 22.1826C33.1729 21.7207 32.8594 21.291 32.5039 20.8984C32.5586 20.834 32.6143 20.7695 32.6709 20.7041C32.9648 20.3613 33.2666 20.0078 33.5605 19.6338C34.0576 20.1553 34.4922 20.7354 34.8555 21.3652C37.3604 25.7061 35.8682 31.2754 31.5283 33.7803ZM37.1436 27.3096L38.2734 27.5166L37.5332 30.2803L36.4365 29.8896C36.7822 29.0645 37.0205 28.1963 37.1436 27.3096ZM47.2441 31.4014C47.0928 31.9678 46.6914 32.4687 46.1719 32.7412C45.7217 32.9775 45.2285 33.0205 44.7832 32.8623L38.6406 30.6748L39.4297 27.7285L45.8438 28.9062C46.3086 28.9912 46.7139 29.2754 46.9863 29.7051C47.2998 30.2012 47.3965 30.8359 47.2441 31.4014ZM26.3984 4.08398V2.05078C26.3984 1.72754 26.6611 1.46484 26.9844 1.46484C27.3076 1.46484 27.5703 1.72754 27.5703 2.05078V4.08398C27.5703 4.40723 27.3076 4.66992 26.9844 4.66992C26.6611 4.66992 26.3984 4.40723 26.3984 4.08398ZM20.1064 4.05078C19.9443 3.77051 20.041 3.41211 20.3213 3.25C20.6016 3.08789 20.96 3.18457 21.1221 3.46484L22.1387 5.22559C22.3008 5.50586 22.2041 5.86426 21.9238 6.02637C21.8311 6.08008 21.7305 6.10449 21.6318 6.10449C21.4297 6.10449 21.2324 5.99902 21.124 5.81152L20.1064 4.05078ZM15.4424 8.12891C15.6045 7.84863 15.9619 7.75293 16.2432 7.91406L18.0039 8.93066C18.2842 9.09277 18.3799 9.45117 18.2188 9.73145C18.1104 9.91895 17.9131 10.0244 17.7109 10.0244C17.6113 10.0244 17.5107 9.99902 17.4189 9.94629L15.6582 8.92969C15.377 8.76758 15.2813 8.40918 15.4424 8.12891ZM13.6572 14.792C13.6572 14.4688 13.9199 14.2061 14.2432 14.2061H16.2764C16.5996 14.2061 16.8623 14.4688 16.8623 14.792C16.8623 15.1152 16.5996 15.3779 16.2764 15.3779H14.2432C13.9199 15.3779 13.6572 15.1162 13.6572 14.792ZM31.832 5.22559L32.8486 3.46484C33.0107 3.18457 33.3691 3.08887 33.6494 3.25C33.9297 3.41211 34.0254 3.77051 33.8643 4.05078L32.8467 5.81152C32.7383 5.99902 32.541 6.10449 32.3389 6.10449C32.2393 6.10449 32.1387 6.0791 32.0469 6.02637C31.7656 5.86426 31.6699 5.50586 31.832 5.22559ZM35.751 9.73145C35.5889 9.45117 35.6856 9.09277 35.9658 8.93066L37.7266 7.91406C38.0068 7.75195 38.3652 7.84863 38.5273 8.12891C38.6895 8.40918 38.5928 8.76758 38.3125 8.92969L36.5518 9.94629C36.46 10 36.3584 10.0244 36.2598 10.0244C36.0566 10.0244 35.8604 9.91895 35.751 9.73145ZM37.6934 14.2061H39.7266C40.0498 14.2061 40.3125 14.4688 40.3125 14.792C40.3125 15.1152 40.0498 15.3779 39.7266 15.3779H37.6934C37.3701 15.3779 37.1074 15.1152 37.1074 14.792C37.1074 14.4688 37.3701 14.2061 37.6934 14.2061ZM35.1924 35.7383L28.1191 39.4326C28.0742 39.3203 28.0205 39.21 27.959 39.1035C27.6231 38.5225 27.083 38.1064 26.4385 37.9336L15.8242 35.0898C15.6533 35.043 15.6533 35.043 14.7871 35.3242C13.8691 35.6221 12.1855 36.1689 11.2051 36.4717V35.2871C11.2051 34.9639 10.9424 34.7012 10.6191 34.7012H5.09668C4.77344 34.7012 4.51074 34.9639 4.51074 35.2871V47.9492C4.51074 48.2725 4.77344 48.5352 5.09668 48.5352H10.6191C10.9424 48.5352 11.2051 48.2725 11.2051 47.9492V46.7168L15.2061 47.4902C15.5205 47.5508 15.8018 47.5791 16.1064 47.5791C16.1387 47.5791 16.1709 47.5791 16.2031 47.5781L24.2939 47.4248H24.3105C24.749 47.4248 25.1797 47.3096 25.5596 47.0898L37.6777 40.0928C38.2559 39.7588 38.6699 39.2178 38.8438 38.5693C39.0176 37.9209 38.9297 37.2451 38.5957 36.667C37.9229 35.501 36.4277 35.0928 35.1924 35.7383ZM10.0332 47.3633H5.68262V35.8721H10.0332V47.3633ZM37.7129 38.2676C37.6201 38.6143 37.3994 38.9023 37.0928 39.0791L24.9746 46.0762C24.7695 46.1943 24.5352 46.2559 24.2979 46.2539C24.292 46.2539 24.2861 46.2539 24.2803 46.2539L16.1816 46.4072C15.9219 46.4121 15.6973 46.3926 15.4297 46.3408L11.2061 45.5244V37.6953C12.1035 37.4268 14.0391 36.7988 15.1494 36.4375C15.3623 36.3682 15.5566 36.3047 15.6846 36.2637L26.1357 39.0645C26.4785 39.1562 26.7656 39.3779 26.9453 39.6885C27.124 39.999 27.1729 40.3584 27.0811 40.7012C26.9893 41.0439 26.7676 41.3311 26.457 41.5107C26.1465 41.6895 25.7871 41.7383 25.4443 41.6465L18.2832 39.7275C17.9707 39.6436 17.6494 39.8291 17.5654 40.1416C17.4814 40.4541 17.667 40.7754 17.9795 40.8594L25.1406 42.7783C25.3555 42.8359 25.5732 42.8643 25.79 42.8643C26.2246 42.8643 26.6553 42.75 27.043 42.5254C27.624 42.1895 28.04 41.6494 28.2129 41.0049C28.2422 40.8945 28.2637 40.7832 28.2783 40.6719L35.7363 36.7773C36.4131 36.4238 37.2246 36.6338 37.583 37.2549C37.7588 37.5615 37.8057 37.9209 37.7129 38.2676Z" fill="#553AF5"/>
</g>
<defs>
<filter id="filter0_d_287_137" x="-2.5" y="0" width="58" height="58" filterUnits="userSpaceOnUse" color-interpolation-filters="sRGB">
<feFlood flood-opacity="0" result="BackgroundImageFix"/>
<feColorMatrix in="SourceAlpha" type="matrix" values="0 0 0 0 0 0 0 0 0 0 0 0 0 0 0 0 0 0 127 0" result="hardAlpha"/>
<feOffset dy="4"/>
<feGaussianBlur stdDeviation="2"/>
<feComposite in2="hardAlpha" operator="out"/>
<feColorMatrix type="matrix" values="0 0 0 0 0 0 0 0 0 0 0 0 0 0 0 0 0 0 0.25 0"/>
<feBlend mode="normal" in2="BackgroundImageFix" result="effect1_dropShadow_287_137"/>
<feBlend mode="normal" in="SourceGraphic" in2="effect1_dropShadow_287_137" result="shape"/>
</filter>
</defs>
</svg>
