<svg width="51" height="50" viewBox="0 0 51 50" fill="none" xmlns="http://www.w3.org/2000/svg">
<path d="M22.375 22.6562H23.9375V27.3438H22.375V22.6562Z" fill="#553AF5"/>
<path d="M22.375 42.1875C22.3748 42.3946 22.2924 42.5932 22.1459 42.7397C21.9995 42.8861 21.8009 42.9685 21.5938 42.9688H4.40625C4.19912 42.9685 4.00055 42.8861 3.85408 42.7397C3.70762 42.5932 3.62524 42.3946 3.625 42.1875V7.8125C3.62524 7.60537 3.70762 7.4068 3.85408 7.26033C4.00055 7.11387 4.19912 7.03149 4.40625 7.03125H21.5938C21.8009 7.03149 21.9995 7.11387 22.1459 7.26033C22.2924 7.4068 22.3748 7.60537 22.375 7.8125V14.8438H23.9375V7.8125C23.9368 7.19112 23.6896 6.59539 23.2502 6.156C22.8109 5.71662 22.2151 5.46946 21.5938 5.46875H4.40625C3.78487 5.46946 3.18914 5.71662 2.74975 6.156C2.31037 6.59539 2.06321 7.19112 2.0625 7.8125V42.1875C2.06321 42.8089 2.31037 43.4046 2.74975 43.844C3.18914 44.2834 3.78487 44.5305 4.40625 44.5312H21.5938C22.2151 44.5305 22.8109 44.2834 23.2502 43.844C23.6896 43.4046 23.9368 42.8089 23.9375 42.1875V35.1562H22.375V42.1875Z" fill="#553AF5"/>
<path d="M20.0312 22.6562H21.5938V27.3438H20.0312V22.6562Z" fill="#553AF5"/>
<path d="M21.5938 37.5V35.1562H20.0312V36.7188H5.96875V13.2812H20.0312V14.8438H21.5938V12.5C21.5937 12.2928 21.5114 12.0941 21.3649 11.9476C21.2184 11.8011 21.0197 11.7188 20.8125 11.7188H5.1875C4.9803 11.7188 4.78159 11.8011 4.63508 11.9476C4.48857 12.0941 4.40626 12.2928 4.40625 12.5V37.5C4.40626 37.7072 4.48857 37.9059 4.63508 38.0524C4.78159 38.1989 4.9803 38.2812 5.1875 38.2812H20.8125C21.0197 38.2812 21.2184 38.1989 21.3649 38.0524C21.5114 37.9059 21.5937 37.7072 21.5938 37.5Z" fill="#553AF5"/>
<path d="M11.4375 8.59375H16.125V10.1562H11.4375V8.59375Z" fill="#553AF5"/>
<path d="M9.875 10.1562C10.3065 10.1562 10.6562 9.80647 10.6562 9.375C10.6562 8.94353 10.3065 8.59375 9.875 8.59375C9.44353 8.59375 9.09375 8.94353 9.09375 9.375C9.09375 9.80647 9.44353 10.1562 9.875 10.1562Z" fill="#553AF5"/>
<path d="M46.5938 5.46875H29.4062C28.7849 5.46946 28.1891 5.71662 27.7498 6.156C27.3104 6.59539 27.0632 7.19112 27.0625 7.8125V14.8438H28.625V10.9375H29.4062V14.8438H30.9688V9.375H32.6301C32.8042 10.0454 33.1957 10.6391 33.7433 11.0632C34.2909 11.4873 34.9636 11.7179 35.6562 11.7188H40.3438C41.0364 11.7179 41.7091 11.4873 42.2567 11.0632C42.8043 10.6391 43.1958 10.0454 43.3699 9.375H45.0312V40.625H30.9688V35.1562H29.4062V39.0625H28.625V35.1562H27.0625V42.1875C27.0632 42.8089 27.3104 43.4046 27.7498 43.844C28.1891 44.2834 28.7849 44.5305 29.4062 44.5312H46.5938C47.2151 44.5305 47.8109 44.2834 48.2502 43.844C48.6896 43.4046 48.9368 42.8089 48.9375 42.1875V7.8125C48.9368 7.19112 48.6896 6.59539 48.2502 6.156C47.8109 5.71662 47.2151 5.46946 46.5938 5.46875ZM42.6875 7.8125C42.4803 7.81251 42.2816 7.89482 42.1351 8.04133C41.9886 8.18784 41.9063 8.38655 41.9062 8.59375C41.9058 9.00801 41.741 9.40516 41.4481 9.69808C41.1552 9.991 40.758 10.1558 40.3438 10.1562H35.6562C35.242 10.1558 34.8448 9.991 34.5519 9.69808C34.259 9.40516 34.0942 9.00801 34.0938 8.59375C34.0937 8.38655 34.0114 8.18784 33.8649 8.04133C33.7184 7.89482 33.5197 7.81251 33.3125 7.8125H30.1875C29.9803 7.81251 29.7816 7.89482 29.6351 8.04133C29.4886 8.18784 29.4063 8.38655 29.4062 8.59375V9.375H28.625V7.8125C28.6252 7.60537 28.7076 7.4068 28.8541 7.26033C29.0005 7.11387 29.1991 7.03149 29.4062 7.03125H46.5938C46.8009 7.03149 46.9995 7.11387 47.1459 7.26033C47.2924 7.4068 47.3748 7.60537 47.375 7.8125V9.375H46.5938V8.59375C46.5937 8.38655 46.5114 8.18784 46.3649 8.04133C46.2184 7.89482 46.0197 7.81251 45.8125 7.8125H42.6875ZM46.5938 10.9375H47.375V39.0625H46.5938V10.9375ZM46.5938 42.9688H29.4062C29.1991 42.9685 29.0005 42.8861 28.8541 42.7397C28.7076 42.5932 28.6252 42.3946 28.625 42.1875V40.625H29.4062V41.4062C29.4063 41.6134 29.4886 41.8122 29.6351 41.9587C29.7816 42.1052 29.9803 42.1875 30.1875 42.1875H45.8125C46.0197 42.1875 46.2184 42.1052 46.3649 41.9587C46.5114 41.8122 46.5937 41.6134 46.5938 41.4062V40.625H47.375V42.1875C47.3748 42.3946 47.2924 42.5932 47.1459 42.7397C46.9995 42.8861 46.8009 42.9685 46.5938 42.9688Z" fill="#553AF5"/>
<path d="M27.0625 22.6562H28.625V27.3438H27.0625V22.6562Z" fill="#553AF5"/>
<path d="M29.4062 22.6562H30.9688V27.3438H29.4062V22.6562Z" fill="#553AF5"/>
<path d="M37.2188 7.8125H38.7812V9.375H37.2188V7.8125Z" fill="#553AF5"/>
<path d="M40.3438 9.375C40.7752 9.375 41.125 9.02522 41.125 8.59375C41.125 8.16228 40.7752 7.8125 40.3438 7.8125C39.9123 7.8125 39.5625 8.16228 39.5625 8.59375C39.5625 9.02522 39.9123 9.375 40.3438 9.375Z" fill="#553AF5"/>
<path d="M16.9062 17.9688V17.5781C16.9054 16.8532 16.6171 16.1581 16.1045 15.6455C15.5919 15.1329 14.8968 14.8446 14.1719 14.8438H13.7812V14.0625H12.2188V14.8438H11.8281C11.1029 14.8438 10.4074 15.1318 9.89463 15.6446C9.38184 16.1574 9.09375 16.8529 9.09375 17.5781C9.09375 18.3033 9.38184 18.9988 9.89463 19.5116C10.4074 20.0244 11.1029 20.3125 11.8281 20.3125H14.1719C14.4827 20.3125 14.7807 20.436 15.0005 20.6557C15.2203 20.8755 15.3438 21.1736 15.3438 21.4844C15.3438 21.7952 15.2203 22.0932 15.0005 22.313C14.7807 22.5328 14.4827 22.6562 14.1719 22.6562H11.8281C11.5174 22.6559 11.2196 22.5323 10.9999 22.3126C10.7802 22.0929 10.6566 21.7951 10.6562 21.4844V21.0938H9.09375V21.4844C9.09456 22.2093 9.38291 22.9044 9.89553 23.417C10.4081 23.9296 11.1032 24.2179 11.8281 24.2188H12.2188V25H13.7812V24.2188H14.1719C14.8971 24.2188 15.5926 23.9307 16.1054 23.4179C16.6182 22.9051 16.9062 22.2096 16.9062 21.4844C16.9062 20.7592 16.6182 20.0637 16.1054 19.5509C15.5926 19.0381 14.8971 18.75 14.1719 18.75H11.8281C11.5173 18.75 11.2193 18.6265 10.9995 18.4068C10.7797 18.187 10.6562 17.8889 10.6562 17.5781C10.6562 17.2673 10.7797 16.9693 10.9995 16.7495C11.2193 16.5297 11.5173 16.4062 11.8281 16.4062H14.1719C14.4826 16.4066 14.7804 16.5302 15.0001 16.7499C15.2198 16.9696 15.3434 17.2674 15.3438 17.5781V17.9688H16.9062Z" fill="#553AF5"/>
<path d="M37.2188 27.3438V28.125H36.8281C36.1029 28.125 35.4074 28.4131 34.8946 28.9259C34.3818 29.4387 34.0938 30.1342 34.0938 30.8594C34.0938 31.5846 34.3818 32.2801 34.8946 32.7929C35.4074 33.3057 36.1029 33.5938 36.8281 33.5938H39.1719C39.4827 33.5938 39.7807 33.7172 40.0005 33.937C40.2203 34.1568 40.3438 34.4548 40.3438 34.7656C40.3438 35.0764 40.2203 35.3745 40.0005 35.5943C39.7807 35.814 39.4827 35.9375 39.1719 35.9375H36.8281C36.5174 35.9372 36.2196 35.8136 35.9999 35.5939C35.7802 35.3742 35.6566 35.0763 35.6562 34.7656V34.375H34.0938V34.7656C34.0946 35.4906 34.3829 36.1856 34.8955 36.6982C35.4081 37.2108 36.1032 37.4992 36.8281 37.5H37.2188V38.2812H38.7812V37.5H39.1719C39.8971 37.5 40.5926 37.2119 41.1054 36.6991C41.6182 36.1863 41.9062 35.4908 41.9062 34.7656C41.9062 34.0404 41.6182 33.3449 41.1054 32.8321C40.5926 32.3193 39.8971 32.0312 39.1719 32.0312H36.8281C36.5173 32.0312 36.2193 31.9078 35.9995 31.688C35.7797 31.4682 35.6562 31.1702 35.6562 30.8594C35.6562 30.5486 35.7797 30.2505 35.9995 30.0307C36.2193 29.811 36.5173 29.6875 36.8281 29.6875H39.1719C39.4826 29.6878 39.7804 29.8114 40.0001 30.0311C40.2198 30.2508 40.3434 30.5487 40.3438 30.8594V31.25H41.9062V30.8594C41.9054 30.1344 41.6171 29.4394 41.1045 28.9268C40.5919 28.4142 39.8968 28.1258 39.1719 28.125H38.7812V27.3438H37.2188Z" fill="#553AF5"/>
<path d="M13 41.4062C13.4315 41.4062 13.7812 41.0565 13.7812 40.625C13.7812 40.1935 13.4315 39.8438 13 39.8438C12.5685 39.8438 12.2188 40.1935 12.2188 40.625C12.2188 41.0565 12.5685 41.4062 13 41.4062Z" fill="#553AF5"/>
<path d="M17.6875 30.4687H33.3125V28.9062H18.4688V27.3437C18.4688 27.1892 18.4229 27.0382 18.3371 26.9097C18.2512 26.7812 18.1292 26.6811 17.9865 26.622C17.8437 26.5628 17.6866 26.5474 17.5351 26.5775C17.3835 26.6076 17.2443 26.682 17.1351 26.7913L13.2288 30.6975C13.0823 30.844 13 31.0428 13 31.25C13 31.4572 13.0823 31.6559 13.2288 31.8024L17.1351 35.7087C17.2443 35.8179 17.3835 35.8923 17.5351 35.9225C17.6866 35.9526 17.8437 35.9371 17.9865 35.878C18.1292 35.8189 18.2512 35.7187 18.3371 35.5903C18.4229 35.4618 18.4688 35.3107 18.4688 35.1562V33.5937H33.3125V32.0312H17.6875C17.4803 32.0312 17.2816 32.1136 17.1351 32.2601C16.9886 32.4066 16.9063 32.6053 16.9063 32.8125V33.2701L14.8861 31.25L16.9063 29.2298V29.6875C16.9063 29.8947 16.9886 30.0934 17.1351 30.2399C17.2816 30.3864 17.4803 30.4687 17.6875 30.4687Z" fill="#553AF5"/>
<path d="M33.865 14.2913C33.7557 14.182 33.6165 14.1076 33.4649 14.0775C33.3134 14.0474 33.1563 14.0628 33.0136 14.122C32.8708 14.1811 32.7488 14.2812 32.6629 14.4097C32.5771 14.5382 32.5313 14.6892 32.5312 14.8437V16.4062H17.6875V17.9687H33.3125C33.5197 17.9687 33.7184 17.8864 33.8649 17.7399C34.0114 17.5934 34.0937 17.3947 34.0937 17.1875V16.7298L36.1139 18.75L34.0937 20.7702V20.3125C34.0937 20.1053 34.0114 19.9066 33.8649 19.7601C33.7184 19.6136 33.5197 19.5312 33.3125 19.5312H17.6875V21.0937H32.5312V22.6562C32.5313 22.8107 32.5771 22.9618 32.6629 23.0903C32.7488 23.2187 32.8708 23.3189 33.0135 23.378C33.1563 23.4371 33.3134 23.4526 33.4649 23.4225C33.6165 23.3923 33.7557 23.3179 33.865 23.2087L37.7712 19.3024C37.9177 19.1559 38 18.9572 38 18.75C38 18.5428 37.9177 18.3441 37.7712 18.1975L33.865 14.2913Z" fill="#553AF5"/>
</svg>
