<svg width="22" height="19" viewBox="0 0 22 19" fill="none" xmlns="http://www.w3.org/2000/svg">
<path fill-rule="evenodd" clip-rule="evenodd" d="M19.4037 0.759868C19.6648 0.649961 19.9506 0.612055 20.2314 0.650095C20.5122 0.688134 20.7776 0.800729 21 0.976159C21.2225 1.15159 21.3939 1.38344 21.4964 1.64758C21.5988 1.91173 21.6286 2.1985 21.5826 2.47806L19.186 17.0151C18.9535 18.4173 17.415 19.2215 16.129 18.523C15.0533 17.9387 13.4555 17.0383 12.0184 16.0989C11.2999 15.6287 9.09875 14.1229 9.36927 13.0514C9.60174 12.1353 13.3002 8.69252 15.4136 6.64569C16.2431 5.84154 15.8648 5.37765 14.8852 6.11734C12.4517 7.95389 8.54715 10.7467 7.25586 11.5329C6.11674 12.2261 5.52287 12.3445 4.81277 12.2261C3.51725 12.0106 2.31579 11.6766 1.33517 11.2698C0.0100644 10.7203 0.0745231 8.89858 1.33411 8.36811L19.4037 0.759868Z" fill="#553AF5"/>
</svg>
