<svg width="9" height="21" viewBox="0 0 9 21" fill="none" xmlns="http://www.w3.org/2000/svg">
<path d="M4.64417 0.790373C4.95452 0.790373 5.65986 1.25589 6.76018 2.18694C7.86051 3.11798 8.41067 3.75279 8.41067 4.09135C8.41067 4.4017 7.86051 5.0365 6.76018 5.99576C5.65986 6.95501 4.95452 7.43464 4.64417 7.43464C4.33382 7.43464 3.62849 6.95501 2.52816 5.99576C1.42784 5.0365 0.877676 4.4017 0.877676 4.09135C0.877676 3.75279 1.42784 3.11798 2.52816 2.18694C3.6567 1.25589 4.36204 0.790373 4.64417 0.790373ZM4.17865 13.952C4.489 13.952 5.19434 14.4175 6.29466 15.3485C7.39499 16.2796 7.94515 16.9144 7.94515 17.2529C7.94515 17.5633 7.39499 18.1981 6.29466 19.1573C5.19434 20.1166 4.489 20.5962 4.17865 20.5962C3.8683 20.5962 3.16297 20.1166 2.06264 19.1573C0.962317 18.1981 0.412154 17.5633 0.412154 17.2529C0.412154 16.9144 0.962317 16.2796 2.06264 15.3485C3.19118 14.4175 3.89652 13.952 4.17865 13.952Z" fill="#553AF5"/>
</svg>
