<svg width="1127" height="415" viewBox="0 0 1127 415" fill="none" xmlns="http://www.w3.org/2000/svg">
<path d="M1 2.17378C105.655 116.618 221.418 167.384 371.092 167.384C520.766 167.384 571.047 167.384 756.384 167.384C941.722 167.384 1053.69 84.6322 1125.89 1M1 116.122C109.095 165.92 197.27 187.89 370.106 187.89C542.941 187.89 574.579 187.89 756.788 187.89C938.997 187.89 1023.66 162.405 1125.89 116.122M1 207.809H1125.89M1 299.203C109.095 249.405 197.27 227.435 370.106 227.435C542.941 227.435 574.579 227.435 756.788 227.435C938.997 227.435 1023.66 252.92 1125.89 299.203M1 413.444C105.655 299 221.418 248.233 371.092 248.233C520.766 248.233 571.047 248.233 756.384 248.233C941.722 248.233 1053.69 330.985 1125.89 414.618" stroke="#553AF5" stroke-width="0.827136"/>
</svg>
